Hornet_IFEI_Digital-7.sfdir
StartChar: exclam
Encoding: 33 33 4
Width: 500
GlyphClass: 2
Flags: W
LayerCount: 2
Fore
SplineSet
270 350 m 1,0,-1
 290 330 l 1,1,-1
 290 160 l 1,2,-1
 210 160 l 1,3,-1
 210 290 l 1,4,-1
 270 350 l 1,0,-1
210 430 m 1,5,-1
 210 640 l 1,6,-1
 240 720 l 1,7,8
 280 710 280 710 290 670 c 1,9,-1
 290 390 l 1,10,-1
 270 370 l 1,11,-1
 210 430 l 1,5,-1
290 0 m 1,12,-1
 210 0 l 1,13,-1
 210 80 l 1,14,-1
 290 80 l 1,15,-1
 290 0 l 1,12,-1
EndSplineSet
EndChar
StartChar: numbersign
Encoding: 35 35 6
Width: 500
GlyphClass: 2
Flags: W
LayerCount: 2
Fore
SplineSet
270 480 m 1,0,-1
 310 440 l 1,1,-1
 270 400 l 1,2,-1
 230 400 l 1,3,-1
 190 440 l 1,4,-1
 230 480 l 1,5,-1
 270 480 l 1,0,-1
270 320 m 1,6,-1
 310 280 l 1,7,-1
 270 240 l 1,8,-1
 230 240 l 1,9,-1
 190 280 l 1,10,-1
 230 320 l 1,11,-1
 270 320 l 1,6,-1
130 380 m 1,12,-1
 170 420 l 1,13,-1
 210 380 l 1,14,-1
 210 340 l 1,15,-1
 170 300 l 1,16,-1
 130 340 l 1,17,-1
 130 380 l 1,12,-1
290 380 m 1,18,-1
 330 420 l 1,19,-1
 370 380 l 1,20,-1
 370 340 l 1,21,-1
 330 300 l 1,22,-1
 290 340 l 1,23,-1
 290 380 l 1,18,-1
130 560 m 1,24,-1
 170 600 l 1,25,-1
 210 560 l 1,26,-1
 210 500 l 1,27,-1
 170 460 l 1,28,-1
 130 500 l 1,29,-1
 130 560 l 1,24,-1
290 560 m 1,30,-1
 330 600 l 1,31,-1
 370 560 l 1,32,-1
 370 500 l 1,33,-1
 330 460 l 1,34,-1
 290 500 l 1,35,-1
 290 560 l 1,30,-1
290 221 m 1,36,-1
 330 261 l 1,37,-1
 370 221 l 1,38,-1
 370 160 l 1,39,-1
 330 120 l 1,40,-1
 290 160 l 1,41,-1
 290 221 l 1,36,-1
130 220 m 1,42,-1
 170 260 l 1,43,-1
 210 220 l 1,44,-1
 210 159 l 1,45,-1
 170 119 l 1,46,-1
 130 159 l 1,47,-1
 130 220 l 1,42,-1
110 320 m 1,48,-1
 150 280 l 1,49,-1
 110 240 l 1,50,-1
 70 240 l 1,51,-1
 30 280 l 1,52,-1
 70 320 l 1,53,-1
 110 320 l 1,48,-1
430 319 m 1,54,-1
 470 279 l 1,55,-1
 430 239 l 1,56,-1
 390 239 l 1,57,-1
 350 279 l 1,58,-1
 390 319 l 1,59,-1
 430 319 l 1,54,-1
430 480 m 1,60,-1
 470 440 l 1,61,-1
 430 400 l 1,62,-1
 390 400 l 1,63,-1
 350 440 l 1,64,-1
 390 480 l 1,65,-1
 430 480 l 1,60,-1
110 479 m 1,66,-1
 150 439 l 1,67,-1
 110 399 l 1,68,-1
 70 399 l 1,69,-1
 30 439 l 1,70,-1
 70 479 l 1,71,-1
 110 479 l 1,66,-1
EndSplineSet
EndChar
StartChar: comma
Encoding: 44 44 15
Width: 500
GlyphClass: 2
Flags: W
LayerCount: 2
Fore
SplineSet
290 -80 m 1,0,-1
 250 -120 l 1,1,-1
 210 -80 l 1,2,-1
 210 80 l 1,3,-1
 290 80 l 1,4,-1
 290 -80 l 1,0,-1
EndSplineSet
EndChar
StartChar: hyphen
Encoding: 45 45 16
Width: 500
GlyphClass: 2
Flags: W
LayerCount: 2
Fore
SplineSet
380 400 m 1,0,-1
 420 360 l 1,1,-1
 380 320 l 1,2,-1
 120 320 l 1,3,-1
 80 360 l 1,4,-1
 120 400 l 1,5,-1
 380 400 l 1,0,-1
EndSplineSet
EndChar
StartChar: period
Encoding: 46 46 17
Width: 500
GlyphClass: 2
Flags: W
LayerCount: 2
Fore
SplineSet
290 0 m 1,0,-1
 210 0 l 1,1,-1
 210 80 l 1,2,-1
 290 80 l 1,3,-1
 290 0 l 1,0,-1
EndSplineSet
EndChar
StartChar: two
Encoding: 50 50 21
Width: 500
GlyphClass: 2
Flags: W
LayerCount: 2
Fore
SplineSet
380 400 m 1,0,-1
 420 360 l 1,1,-1
 380 320 l 1,2,-1
 120 320 l 1,3,-1
 80 360 l 1,4,-1
 120 400 l 1,5,-1
 380 400 l 1,0,-1
420 0 m 1,6,-1
 90 0 l 1,7,8
 50 10 50 10 40 50 c 1,9,-1
 120 80 l 1,10,-1
 390 80 l 1,11,-1
 420 0 l 1,6,-1
40 70 m 1,12,-1
 40 330 l 1,13,-1
 60 350 l 1,14,-1
 120 290 l 1,15,-1
 120 100 l 1,16,-1
 40 70 l 1,12,-1
360 640 m 1,17,-1
 121 640 l 1,18,-1
 41 670 l 1,19,20
 51 710 51 710 91 720 c 1,21,-1
 390 720 l 1,22,-1
 360 640 l 1,17,-1
380 430 m 1,23,-1
 380 640 l 1,24,-1
 410 720 l 1,25,26
 450 710 450 710 460 670 c 1,27,-1
 460 390 l 1,28,-1
 440 370 l 1,29,-1
 380 430 l 1,23,-1
EndSplineSet
EndChar
StartChar: three
Encoding: 51 51 22
Width: 500
GlyphClass: 2
Flags: W
LayerCount: 2
Fore
SplineSet
380 400 m 1,0,-1
 420 360 l 1,1,-1
 380 320 l 1,2,-1
 120 320 l 1,3,-1
 80 360 l 1,4,-1
 120 400 l 1,5,-1
 380 400 l 1,0,-1
440 350 m 1,6,-1
 460 330 l 1,7,-1
 460 50 l 1,8,9
 450 10 450 10 410 0 c 1,10,-1
 380 80 l 1,11,-1
 380 290 l 1,12,-1
 440 350 l 1,6,-1
390 0 m 1,13,-1
 90 0 l 1,14,15
 50 10 50 10 40 50 c 1,16,-1
 120 80 l 1,17,-1
 360 80 l 1,18,-1
 390 0 l 1,13,-1
360 640 m 1,19,-1
 121 640 l 1,20,-1
 41 670 l 1,21,22
 51 710 51 710 91 720 c 1,23,-1
 390 720 l 1,24,-1
 360 640 l 1,19,-1
380 430 m 1,25,-1
 380 640 l 1,26,-1
 410 720 l 1,27,28
 450 710 450 710 460 670 c 1,29,-1
 460 390 l 1,30,-1
 440 370 l 1,31,-1
 380 430 l 1,25,-1
EndSplineSet
Validated: 1
EndChar
StartChar: seven
Encoding: 55 55 26
Width: 500
GlyphClass: 2
Flags: W
LayerCount: 2
Fore
SplineSet
440 350 m 1,0,-1
 460 330 l 1,1,-1
 460 50 l 1,2,3
 450 10 450 10 410 0 c 1,4,-1
 380 80 l 1,5,-1
 380 290 l 1,6,-1
 440 350 l 1,0,-1
360 640 m 1,7,-1
 121 640 l 1,8,-1
 41 670 l 1,9,10
 51 710 51 710 91 720 c 1,11,-1
 390 720 l 1,12,-1
 360 640 l 1,7,-1
380 430 m 1,13,-1
 380 640 l 1,14,-1
 410 720 l 1,15,16
 450 710 450 710 460 670 c 1,17,-1
 460 390 l 1,18,-1
 440 370 l 1,19,-1
 380 430 l 1,13,-1
EndSplineSet
Validated: 1
EndChar
StartChar: question
Encoding: 63 63 34
Width: 500
GlyphClass: 2
Flags: W
LayerCount: 2
Fore
SplineSet
380 400 m 1,0,-1
 420 360 l 1,1,-1
 380 320 l 1,2,-1
 120 320 l 1,3,-1
 80 360 l 1,4,-1
 120 400 l 1,5,-1
 380 400 l 1,0,-1
40 160 m 1,6,-1
 40 330 l 1,7,-1
 60 350 l 1,8,-1
 120 290 l 1,9,-1
 120 160 l 1,10,-1
 40 160 l 1,6,-1
360 640 m 1,11,-1
 121 640 l 1,12,-1
 41 670 l 1,13,14
 51 710 51 710 91 720 c 1,15,-1
 390 720 l 1,16,-1
 360 640 l 1,11,-1
380 430 m 1,17,-1
 380 640 l 1,18,-1
 410 720 l 1,19,20
 450 710 450 710 460 670 c 1,21,-1
 460 390 l 1,22,-1
 440 370 l 1,23,-1
 380 430 l 1,17,-1
120 0 m 1,24,-1
 40 0 l 1,25,-1
 40 80 l 1,26,-1
 120 80 l 1,27,-1
 120 0 l 1,24,-1
EndSplineSet
Validated: 1
EndChar
StartChar: at
Encoding: 64 64 35
Width: 500
GlyphClass: 2
Flags: W
LayerCount: 2
Fore
SplineSet
440 350 m 1,0,-1
 460 330 l 1,1,-1
 460 210 l 1,2,3
 450 170 450 170 410 160 c 1,4,-1
 380 240 l 1,5,-1
 380 290 l 1,6,-1
 440 350 l 1,0,-1
390 0 m 1,7,-1
 90 0 l 1,8,9
 50 10 50 10 40 50 c 1,10,-1
 120 80 l 1,11,-1
 360 80 l 1,12,-1
 390 0 l 1,7,-1
40 70 m 1,13,-1
 40 330 l 1,14,-1
 60 350 l 1,15,-1
 120 290 l 1,16,-1
 120 100 l 1,17,-1
 40 70 l 1,13,-1
360 640 m 1,18,-1
 121 640 l 1,19,-1
 41 670 l 1,20,21
 51 710 51 710 91 720 c 1,22,-1
 390 720 l 1,23,-1
 360 640 l 1,18,-1
120 620 m 1,24,-1
 120 430 l 1,25,-1
 60 370 l 1,26,-1
 40 390 l 1,27,-1
 40 650 l 1,28,-1
 120 620 l 1,24,-1
380 430 m 1,29,-1
 380 640 l 1,30,-1
 410 720 l 1,31,32
 450 710 450 710 460 670 c 1,33,-1
 460 390 l 1,34,-1
 440 370 l 1,35,-1
 380 430 l 1,29,-1
390 160 m 1,36,-1
 250 159 l 1,37,38
 210 169 210 169 200 209 c 1,39,-1
 280 240 l 1,40,-1
 360 240 l 1,41,-1
 390 160 l 1,36,-1
200 230 m 1,42,-1
 200 330 l 1,43,-1
 220 350 l 1,44,-1
 280 290 l 1,45,-1
 280 260 l 1,46,-1
 200 230 l 1,42,-1
280 460 m 1,47,-1
 280 430 l 1,48,-1
 220 370 l 1,49,-1
 200 390 l 1,50,-1
 200 490 l 1,51,-1
 280 460 l 1,47,-1
360 480 m 1,52,-1
 280 480 l 1,53,-1
 200 511 l 1,54,55
 210 551 210 551 250 561 c 1,56,-1
 360 560 l 1,57,-1
 360 480 l 1,52,-1
EndSplineSet
Validated: 1
EndChar
StartChar: L
Encoding: 76 76 47
Width: 500
GlyphClass: 2
Flags: W
LayerCount: 2
Fore
SplineSet
120 290 m 1,0,-1
 120 80 l 1,1,-1
 90 0 l 1,2,3
 50 10 50 10 40 50 c 1,4,-1
 40 330 l 1,5,-1
 60 350 l 1,6,-1
 120 290 l 1,0,-1
140 80 m 1,7,-1
 380 80 l 1,8,-1
 460 50 l 1,9,10
 450 10 450 10 410 0 c 1,11,-1
 110 0 l 1,12,-1
 140 80 l 1,7,-1
60 370 m 1,13,-1
 40 390 l 1,14,-1
 40 670 l 1,15,16
 50 710 50 710 90 720 c 1,17,-1
 120 640 l 1,18,-1
 120 430 l 1,19,-1
 60 370 l 1,13,-1
EndSplineSet
Validated: 1
EndChar
StartChar: R
Encoding: 82 82 53
Width: 500
GlyphClass: 2
Flags: W
LayerCount: 2
Fore
SplineSet
380 400 m 1,0,-1
 420 360 l 1,1,-1
 380 320 l 1,2,-1
 120 320 l 1,3,-1
 80 360 l 1,4,-1
 120 400 l 1,5,-1
 380 400 l 1,0,-1
140 300 m 1,6,-1
 200 300 l 1,7,-1
 460 40 l 1,8,9
 440 0 440 0 380 0 c 1,10,-1
 140 240 l 1,11,-1
 140 300 l 1,6,-1
120 290 m 1,12,-1
 120 80 l 1,13,-1
 90 0 l 1,14,15
 50 10 50 10 40 50 c 1,16,-1
 40 330 l 1,17,-1
 60 350 l 1,18,-1
 120 290 l 1,12,-1
360 640 m 1,19,-1
 121 640 l 1,20,-1
 41 670 l 1,21,22
 51 710 51 710 91 720 c 1,23,-1
 390 720 l 1,24,-1
 360 640 l 1,19,-1
380 430 m 1,25,-1
 380 640 l 1,26,-1
 410 720 l 1,27,28
 450 710 450 710 460 670 c 1,29,-1
 460 390 l 1,30,-1
 440 370 l 1,31,-1
 380 430 l 1,25,-1
120 620 m 1,32,-1
 120 430 l 1,33,-1
 60 370 l 1,34,-1
 40 390 l 1,35,-1
 40 650 l 1,36,-1
 120 620 l 1,32,-1
EndSplineSet
Validated: 1
EndChar
StartChar: S
Encoding: 83 83 54
Width: 500
GlyphClass: 2
Flags: W
LayerCount: 2
Fore
SplineSet
380 400 m 1,0,-1
 420 360 l 1,1,-1
 380 320 l 1,2,-1
 120 320 l 1,3,-1
 80 360 l 1,4,-1
 120 400 l 1,5,-1
 380 400 l 1,0,-1
440 350 m 1,6,-1
 460 330 l 1,7,-1
 460 50 l 1,8,9
 450 10 450 10 410 0 c 1,10,-1
 380 80 l 1,11,-1
 380 290 l 1,12,-1
 440 350 l 1,6,-1
390 0 m 1,13,-1
 90 0 l 1,14,15
 50 10 50 10 40 50 c 1,16,-1
 120 80 l 1,17,-1
 360 80 l 1,18,-1
 390 0 l 1,13,-1
120 620 m 1,19,-1
 120 430 l 1,20,-1
 60 370 l 1,21,-1
 40 390 l 1,22,-1
 40 650 l 1,23,-1
 120 620 l 1,19,-1
121 640 m 1,24,-1
 41 670 l 1,25,26
 51 710 51 710 91 720 c 1,27,-1
 410 720 l 1,28,29
 450 710 450 710 460 670 c 1,30,-1
 380 640 l 1,31,-1
 121 640 l 1,24,-1
EndSplineSet
EndChar
StartChar: Z
Encoding: 90 90 61
Width: 500
GlyphClass: 2
Flags: W
LayerCount: 2
Fore
SplineSet
420 0 m 1,0,-1
 140 0 l 1,1,-1
 180 80 l 1,2,-1
 390 80 l 1,3,-1
 420 0 l 1,0,-1
320 640 m 1,4,-1
 121 640 l 1,5,-1
 41 670 l 1,6,7
 51 710 51 710 91 720 c 1,8,-1
 360 720 l 1,9,-1
 320 640 l 1,4,-1
250 430 m 1,10,-1
 380 720 l 1,11,12
 440 720 440 720 460 680 c 1,13,-1
 310 370 l 1,14,-1
 250 370 l 1,15,-1
 250 430 l 1,10,-1
260 290 m 1,16,-1
 120 0 l 1,17,18
 60 0 60 0 40 40 c 1,19,-1
 200 350 l 1,20,-1
 260 350 l 1,21,-1
 260 290 l 1,16,-1
EndSplineSet
Validated: 1
EndChar
StartChar: bracketleft
Encoding: 91 91 62
Width: 500
GlyphClass: 2
Flags: W
LayerCount: 2
Fore
SplineSet
40 70 m 1,0,-1
 40 330 l 1,1,-1
 60 350 l 1,2,-1
 120 290 l 1,3,-1
 120 100 l 1,4,-1
 40 70 l 1,0,-1
190 640 m 1,5,-1
 121 640 l 1,6,-1
 41 670 l 1,7,8
 51 710 51 710 91 720 c 1,9,-1
 230 720 l 1,10,-1
 250 700 l 1,11,-1
 190 640 l 1,5,-1
120 620 m 1,12,-1
 120 430 l 1,13,-1
 60 370 l 1,14,-1
 40 390 l 1,15,-1
 40 650 l 1,16,-1
 120 620 l 1,12,-1
250 20 m 1,17,-1
 230 0 l 1,18,-1
 91 0 l 1,19,20
 51 10 51 10 41 50 c 1,21,-1
 121 80 l 1,22,-1
 190 80 l 1,23,-1
 250 20 l 1,17,-1
EndSplineSet
EndChar
StartChar: grave
Encoding: 96 96 67
Width: 500
GlyphClass: 2
Flags: W
LayerCount: 2
Fore
SplineSet
340 610 m 1,0,-1
 340 570 l 1,1,-1
 300 560 l 1,2,-1
 160 700 l 1,3,-1
 170 740 l 1,4,-1
 210 740 l 1,5,-1
 340 610 l 1,0,-1
EndSplineSet
EndChar
StartChar: c
Encoding: 99 99 70
Width: 500
GlyphClass: 2
Flags: W
LayerCount: 2
Fore
SplineSet
420 0 m 1,0,-1
 90 0 l 1,1,2
 50 10 50 10 40 50 c 1,3,-1
 120 80 l 1,4,-1
 390 80 l 1,5,-1
 420 0 l 1,0,-1
40 70 m 1,6,-1
 40 330 l 1,7,-1
 60 350 l 1,8,-1
 120 290 l 1,9,-1
 120 100 l 1,10,-1
 40 70 l 1,6,-1
390 640 m 1,11,-1
 121 640 l 1,12,-1
 41 670 l 1,13,14
 51 710 51 710 91 720 c 1,15,-1
 420 720 l 1,16,-1
 390 640 l 1,11,-1
120 620 m 1,17,-1
 120 430 l 1,18,-1
 60 370 l 1,19,-1
 40 390 l 1,20,-1
 40 650 l 1,21,-1
 120 620 l 1,17,-1
EndSplineSet
EndChar
StartChar: i
Encoding: 105 105 76
Width: 500
GlyphClass: 2
Flags: W
LayerCount: 2
Fore
SplineSet
290 310 m 1,0,-1
 290 91 l 1,1,-1
 210 91 l 1,2,-1
 210 310 l 1,3,-1
 250 350 l 1,4,-1
 290 310 l 1,0,-1
379 80 m 1,5,-1
 459 0 l 1,6,7
 459 0 459 0 409 0 c 2,8,-1
 90 0 l 1,9,10
 90 0 90 0 40 0 c 1,11,-1
 120 80 l 1,12,-1
 379 80 l 1,5,-1
210 410 m 1,13,-1
 210 630 l 1,14,-1
 290 630 l 1,15,-1
 290 410 l 1,16,-1
 250 370 l 1,17,-1
 210 410 l 1,13,-1
121 640 m 1,18,-1
 41 720 l 1,19,20
 41 720 41 720 91 720 c 2,21,-1
 410 720 l 1,22,23
 410 720 410 720 460 719 c 1,24,-1
 380 640 l 1,25,-1
 121 640 l 1,18,-1
EndSplineSet
Validated: 1
EndChar
StartChar: j
Encoding: 106 106 77
Width: 500
GlyphClass: 2
Flags: W
LayerCount: 2
Fore
SplineSet
440 350 m 1,0,-1
 460 330 l 1,1,-1
 460 50 l 1,2,3
 450 10 450 10 410 0 c 1,4,-1
 380 80 l 1,5,-1
 380 290 l 1,6,-1
 440 350 l 1,0,-1
390 0 m 1,7,-1
 90 0 l 1,8,9
 50 10 50 10 40 50 c 1,10,-1
 120 80 l 1,11,-1
 360 80 l 1,12,-1
 390 0 l 1,7,-1
40 70 m 1,13,-1
 40 330 l 1,14,-1
 60 350 l 1,15,-1
 120 290 l 1,16,-1
 120 100 l 1,17,-1
 40 70 l 1,13,-1
380 430 m 1,18,-1
 380 640 l 1,19,-1
 410 720 l 1,20,21
 450 710 450 710 460 670 c 1,22,-1
 460 390 l 1,23,-1
 440 370 l 1,24,-1
 380 430 l 1,18,-1
EndSplineSet
Validated: 1
EndChar
StartChar: o
Encoding: 111 111 82
Width: 500
GlyphClass: 2
Flags: W
LayerCount: 2
Fore
SplineSet
360 640 m 1,0,-1
 140 640 l 1,1,-1
 100 680 l 1,2,-1
 140 720 l 1,3,-1
 360 720 l 1,4,-1
 400 680 l 1,5,-1
 360 640 l 1,0,-1
380 430 m 1,6,-1
 380 640 l 1,7,-1
 410 670 l 1,8,-1
 460 620 l 1,9,-1
 460 390 l 1,10,-1
 440 370 l 1,11,-1
 380 430 l 1,6,-1
440 350 m 1,12,-1
 460 330 l 1,13,-1
 460 100 l 1,14,-1
 410 50 l 1,15,-1
 380 80 l 1,16,-1
 380 290 l 1,17,-1
 440 350 l 1,12,-1
60 370 m 1,18,-1
 40 390 l 1,19,-1
 40 620 l 1,20,-1
 90 670 l 1,21,-1
 120 640 l 1,22,-1
 120 430 l 1,23,-1
 60 370 l 1,18,-1
400 40 m 1,24,-1
 360 0 l 1,25,-1
 140 0 l 1,26,-1
 100 40 l 1,27,-1
 140 80 l 1,28,-1
 360 80 l 1,29,-1
 400 40 l 1,24,-1
120 290 m 1,30,-1
 120 80 l 1,31,-1
 90 50 l 1,32,-1
 40 100 l 1,33,-1
 40 330 l 1,34,-1
 60 350 l 1,35,-1
 120 290 l 1,30,-1
EndSplineSet
EndChar
StartChar: braceleft
Encoding: 123 123 94
Width: 500
GlyphClass: 2
Flags: W
LayerCount: 2
Fore
SplineSet
150 70 m 1,0,-1
 150 290 l 1,1,-1
 210 350 l 1,2,-1
 230 330 l 1,3,-1
 230 100 l 1,4,-1
 150 70 l 1,0,-1
300 640 m 1,5,-1
 231 640 l 1,6,-1
 151 670 l 1,7,8
 161 710 161 710 201 720 c 1,9,-1
 340 720 l 1,10,-1
 360 700 l 1,11,-1
 300 640 l 1,5,-1
230 620 m 1,12,-1
 230 390 l 1,13,-1
 210 370 l 1,14,-1
 150 430 l 1,15,-1
 150 650 l 1,16,-1
 230 620 l 1,12,-1
360 20 m 1,17,-1
 340 0 l 1,18,-1
 201 0 l 1,19,20
 161 10 161 10 151 50 c 1,21,-1
 231 80 l 1,22,-1
 300 80 l 1,23,-1
 360 20 l 1,17,-1
140 400 m 1,24,-1
 180 360 l 1,25,-1
 140 320 l 1,26,-1
 70 320 l 1,27,-1
 30 360 l 1,28,-1
 70 400 l 1,29,-1
 140 400 l 1,24,-1
EndSplineSet
Validated: 1
EndChar
StartChar: bar
Encoding: 124 124 95
Width: 500
GlyphClass: 2
Flags: W
LayerCount: 2
Fore
SplineSet
120 50 m 1,0,1
 110 10 110 10 70 0 c 1,2,-1
 40 80 l 1,3,-1
 40 640 l 1,4,-1
 70 720 l 1,5,6
 110 710 110 710 120 670 c 1,7,-1
 120 50 l 1,0,1
EndSplineSet
EndChar
StartChar: copyright
Encoding: 169 169 98
Width: 500
GlyphClass: 2
Flags: W
LayerCount: 2
Fore
SplineSet
410 0 m 1,0,-1
 50 0 l 1,1,2
 10 10 10 10 0 50 c 1,3,-1
 80 80 l 1,4,-1
 380 80 l 1,5,-1
 410 0 l 1,0,-1
380 640 m 1,6,-1
 81 640 l 1,7,-1
 1 670 l 1,8,9
 11 710 11 710 51 720 c 1,10,-1
 410 720 l 1,11,-1
 380 640 l 1,6,-1
80 100 m 1,12,-1
 0 70 l 1,13,-1
 0 650 l 1,14,-1
 80 620 l 1,15,-1
 80 100 l 1,12,-1
480 50 m 1,16,17
 470 10 470 10 430 0 c 1,18,-1
 400 80 l 1,19,-1
 400 640 l 1,20,-1
 430 720 l 1,21,22
 470 710 470 710 480 670 c 1,23,-1
 480 50 l 1,16,17
330 480 m 1,24,-1
 200 480 l 1,25,-1
 120 510 l 1,26,27
 130 550 130 550 170 560 c 1,28,-1
 360 560 l 1,29,-1
 330 480 l 1,24,-1
200 460 m 1,30,-1
 200 240 l 1,31,-1
 170 160 l 1,32,33
 130 170 130 170 120 210 c 1,34,-1
 120 490 l 1,35,-1
 200 460 l 1,30,-1
220 240 m 1,36,-1
 280 240 l 1,37,-1
 360 210 l 1,38,39
 350 170 350 170 310 160 c 1,40,-1
 190 160 l 1,41,-1
 220 240 l 1,36,-1
EndSplineSet
EndChar
StartChar: emdash
Encoding: 8212 8212 100
Width: 500
GlyphClass: 2
Flags: W
LayerCount: 2
Fore
SplineSet
450 400 m 1,0,-1
 490 360 l 1,1,-1
 450 320 l 1,2,-1
 50 320 l 1,3,-1
 10 360 l 1,4,-1
 50 400 l 1,5,-1
 450 400 l 1,0,-1
EndSplineSet
EndChar
StartChar: quoteleft
Encoding: 8216 8216 101
Width: 500
GlyphClass: 2
Flags: W
LayerCount: 2
Fore
SplineSet
300 520 m 1,0,-1
 220 520 l 1,1,-1
 220 680 l 1,2,-1
 260 720 l 1,3,-1
 300 680 l 1,4,-1
 300 520 l 1,0,-1
EndSplineSet
EndChar
StartChar: quotedblleft
Encoding: 8220 8220 103
Width: 500
GlyphClass: 2
Flags: W
LayerCount: 2
Fore
SplineSet
220 521 m 1,0,-1
 140 521 l 1,1,-1
 140 681 l 1,2,-1
 180 721 l 1,3,-1
 220 681 l 1,4,-1
 220 521 l 1,0,-1
380 520 m 1,5,-1
 300 520 l 1,6,-1
 300 680 l 1,7,-1
 340 720 l 1,8,-1
 380 680 l 1,9,-1
 380 520 l 1,5,-1
EndSplineSet
EndChar
StartChar: bullet
Encoding: 8226 8226 105
Width: 500
GlyphClass: 2
Flags: W
LayerCount: 2
Fore
SplineSet
245 220 m 256,0,1
 185 220 185 220 142.5 262.5 c 128,-1,2
 100 305 100 305 100 365 c 256,3,4
 100 425 100 425 142.5 467.5 c 128,-1,5
 185 510 185 510 245 510 c 256,6,7
 305 510 305 510 347.5 467.5 c 128,-1,8
 390 425 390 425 390 365 c 256,9,10
 390 305 390 305 347.5 262.5 c 128,-1,11
 305 220 305 220 245 220 c 256,0,1
EndSplineSet
EndChar
StartChar: perthousand
Encoding: 8240 8240 106
Width: 500
GlyphClass: 2
Flags: W
LayerCount: 2
Fore
SplineSet
229 399 m 1,0,-1
 69 240 l 1,1,2
 9 239 9 239 10 299 c 1,3,-1
 199 489 l 1,4,-1
 229 489 l 1,5,-1
 229 399 l 1,0,-1
90 640 m 1,6,-1
 80 640 l 1,7,-1
 0 670 l 1,8,9
 10 710 10 710 50 720 c 1,10,-1
 120 720 l 1,11,-1
 90 640 l 1,6,-1
80 620 m 1,12,-1
 80 560 l 1,13,-1
 50 480 l 1,14,15
 10 490 10 490 0 530 c 1,16,-1
 0 650 l 1,17,-1
 80 620 l 1,12,-1
100 560 m 1,18,-1
 110 560 l 1,19,-1
 190 530 l 1,20,21
 180 490 180 490 140 480 c 1,22,-1
 70 480 l 1,23,-1
 100 560 l 1,18,-1
110 580 m 1,24,-1
 110 640 l 1,25,-1
 140 720 l 1,26,27
 180 710 180 710 190 670 c 1,28,-1
 190 550 l 1,29,-1
 110 580 l 1,24,-1
390 160 m 1,30,-1
 380 160 l 1,31,-1
 300 190 l 1,32,33
 310 230 310 230 350 240 c 1,34,-1
 420 240 l 1,35,-1
 390 160 l 1,30,-1
381 140 m 1,36,-1
 381 80 l 1,37,-1
 351 0 l 1,38,39
 311 10 311 10 301 50 c 1,40,-1
 301 170 l 1,41,-1
 381 140 l 1,36,-1
400 80 m 1,42,-1
 410 80 l 1,43,-1
 490 50 l 1,44,45
 480 10 480 10 440 0 c 1,46,-1
 370 0 l 1,47,-1
 400 80 l 1,42,-1
410 100 m 1,48,-1
 410 160 l 1,49,-1
 440 240 l 1,50,51
 480 230 480 230 490 190 c 1,52,-1
 490 70 l 1,53,-1
 410 100 l 1,48,-1
180 100 m 1,54,-1
 180 160 l 1,55,-1
 210 240 l 1,56,57
 250 230 250 230 260 190 c 1,58,-1
 260 70 l 1,59,-1
 180 100 l 1,54,-1
170 79 m 1,60,-1
 180 79 l 1,61,-1
 260 49 l 1,62,63
 250 9 250 9 210 -1 c 1,64,-1
 140 -1 l 1,65,-1
 170 79 l 1,60,-1
150 140 m 1,66,-1
 150 80 l 1,67,-1
 120 0 l 1,68,69
 80 10 80 10 70 50 c 1,70,-1
 70 170 l 1,71,-1
 150 140 l 1,66,-1
160 160 m 1,72,-1
 150 160 l 1,73,-1
 70 190 l 1,74,75
 80 230 80 230 120 240 c 1,76,-1
 190 240 l 1,77,-1
 160 160 l 1,72,-1
240 531 m 1,78,-1
 400 690 l 1,79,80
 460 691 460 691 459 631 c 1,81,-1
 270 440 l 1,82,-1
 240 441 l 1,83,-1
 240 531 l 1,78,-1
EndSplineSet
EndChar
